<svg xmlns="http://www.w3.org/2000/svg" viewBox="0 0 160 160" width="160" height="160">
  <defs><clipPath id="c"><circle cx="80" cy="80" r="76"/></clipPath></defs>
  <circle cx="80" cy="80" r="78" fill="#fff"/>
  <g clip-path="url(#c)">
    <!-- fond nuit étoilée désert -->
    <rect x="0" y="0" width="160" height="160" fill="#050a1a"/>
    <!-- voie lactée -->
    <ellipse cx="80" cy="50" rx="70" ry="25" fill="#1a2a4a" opacity="0.7"/>
    <!-- étoiles nombreuses -->
    <circle cx="15" cy="10" r="1.5" fill="#fff"/>
    <circle cx="30" cy="5" r="1" fill="#fff"/>
    <circle cx="45" cy="18" r="2" fill="#fff"/>
    <circle cx="60" cy="8" r="1" fill="#fff"/>
    <circle cx="75" cy="15" r="1.5" fill="#fff"/>
    <circle cx="90" cy="5" r="1" fill="#fff"/>
    <circle cx="105" cy="20" r="2" fill="#fff"/>
    <circle cx="120" cy="10" r="1.5" fill="#fff"/>
    <circle cx="140" cy="18" r="1" fill="#fff"/>
    <circle cx="150" cy="6" r="1.5" fill="#fff"/>
    <circle cx="22" cy="35" r="1" fill="#fff"/>
    <circle cx="55" cy="42" r="1.5" fill="#FFD166"/>
    <circle cx="85" cy="30" r="1" fill="#90e0ef"/>
    <circle cx="110" cy="38" r="1.5" fill="#fff"/>
    <circle cx="135" cy="30" r="1" fill="#fff"/>
    <circle cx="8" cy="55" r="1" fill="#fff"/>
    <circle cx="148" cy="45" r="1.5" fill="#fff"/>
    <circle cx="40" cy="62" r="1" fill="#fff"/>
    <circle cx="125" cy="55" r="1" fill="#FFD166"/>
    <!-- lune -->
    <circle cx="130" cy="22" r="16" fill="#f0e0b0"/>
    <circle cx="137" cy="18" r="12" fill="#050a1a"/>
    <!-- silhouette dunes -->
    <path d="M0,160 Q30,130 60,140 Q90,150 120,130 Q145,118 160,130 L160,160 Z" fill="#0d1a0d"/>
    <path d="M0,160 Q20,145 50,150 Q80,155 110,145 Q135,138 160,145 L160,160 Z" fill="#152015"/>
    <!-- télescope -->
    <rect x="90" y="105" width="6" height="35" fill="#4a5568" transform="rotate(-5,93,122)"/>
    <rect x="85" y="100" width="8" height="8" rx="2" fill="#2d3748"/>
    <ellipse cx="89" cy="135" rx="10" ry="6" fill="#2d3748"/>
    <rect x="80" y="118" width="18" height="4" rx="2" fill="#4a5568" transform="rotate(-5,89,120)"/>
    <!-- trépied télescope -->
    <line x1="89" y1="135" x2="78" y2="158" stroke="#4a5568" stroke-width="2.5"/>
    <line x1="89" y1="135" x2="89" y2="160" stroke="#4a5568" stroke-width="2.5"/>
    <line x1="89" y1="135" x2="100" y2="158" stroke="#4a5568" stroke-width="2.5"/>
    <!-- oculaire lumineux -->
    <circle cx="89" cy="101" r="5" fill="#90e0ef" opacity="0.5"/>
    <circle cx="89" cy="101" r="3" fill="#90e0ef" opacity="0.7"/>
    <!-- jambes -->
    <rect x="63" y="118" width="14" height="34" rx="5" fill="#1a3a5c"/>
    <rect x="79" y="118" width="14" height="34" rx="5" fill="#1a3a5c"/>
    <!-- chaussures -->
    <rect x="60" y="145" width="19" height="9" rx="3" fill="#0d1a2e"/>
    <rect x="78" y="145" width="19" height="9" rx="3" fill="#0d1a2e"/>
    <!-- veste astronomie -->
    <rect x="56" y="78" width="48" height="44" rx="7" fill="#1a2a4a"/>
    <!-- poches veste -->
    <rect x="59" y="88" width="12" height="10" rx="2" fill="#0d1a2e"/>
    <rect x="89" y="88" width="12" height="10" rx="2" fill="#0d1a2e"/>
    <!-- fermeture éclair -->
    <rect x="78" y="79" width="4" height="38" fill="#0d1a2e"/>
    <!-- bras gauche pointant vers ciel -->
    <rect x="36" y="70" width="22" height="11" rx="5" fill="#1a2a4a" transform="rotate(-40,47,75)"/>
    <!-- bras droit vers télescope -->
    <rect x="102" y="88" width="22" height="11" rx="5" fill="#1a2a4a" transform="rotate(20,113,93)"/>
    <!-- cou -->
    <rect x="74" y="63" width="12" height="17" rx="4" fill="#a07858"/>
    <!-- tête -->
    <ellipse cx="80" cy="52" rx="20" ry="22" fill="#a07858"/>
    <!-- barbe grisonnante -->
    <path d="M60,56 Q62,72 80,74 Q98,72 100,56" fill="#7a6048"/>
    <path d="M62,58 Q64,70 80,72 Q96,70 98,58" fill="#888" opacity="0.4"/>
    <!-- cheveux gris mi-longs -->
    <ellipse cx="80" cy="33" rx="21" ry="12" fill="#718096"/>
    <rect x="59" y="33" width="8" height="32" rx="4" fill="#718096"/>
    <rect x="93" y="33" width="8" height="28" rx="4" fill="#718096"/>
    <!-- bonnet de laine -->
    <rect x="59" y="28" width="42" height="18" rx="6" fill="#2d3748"/>
    <ellipse cx="80" cy="28" rx="21" ry="8" fill="#2d3748"/>
    <rect x="59" y="34" width="42" height="5" rx="2" fill="#4a5568"/>
    <rect x="59" y="28" width="42" height="5" rx="2" fill="#4a5568"/>
    <!-- étoile sur bonnet -->
    <polygon points="80,18 82,24 88,24 83,27 85,33 80,29 75,33 77,27 72,24 78,24" fill="#FFD166" opacity="0.9"/>
    <!-- yeux perçants bleus -->
    <ellipse cx="72" cy="52" rx="4.5" ry="4.5" fill="#fff"/>
    <ellipse cx="88" cy="52" rx="4.5" ry="4.5" fill="#fff"/>
    <circle cx="72" cy="52" r="3" fill="#2980b9"/>
    <circle cx="88" cy="52" r="3" fill="#2980b9"/>
    <circle cx="73" cy="51" r="1.2" fill="#fff"/>
    <circle cx="89" cy="51" r="1.2" fill="#fff"/>
    <!-- lunettes rondes -->
    <circle cx="72" cy="52" r="7" fill="none" stroke="#718096" stroke-width="1.5"/>
    <circle cx="88" cy="52" r="7" fill="none" stroke="#718096" stroke-width="1.5"/>
    <line x1="79" y1="52" x2="81" y2="52" stroke="#718096" stroke-width="1.5"/>
    <line x1="65" y1="52" x2="61" y2="54" stroke="#718096" stroke-width="1.5"/>
    <line x1="95" y1="52" x2="99" y2="54" stroke="#718096" stroke-width="1.5"/>
    <!-- sourcils sages -->
    <path d="M67,44 Q72,42 77,44" fill="none" stroke="#5a4a38" stroke-width="2"/>
    <path d="M83,44 Q88,42 93,44" fill="none" stroke="#5a4a38" stroke-width="2"/>
    <!-- nez fort -->
    <path d="M77,56 Q80,62 83,56" fill="none" stroke="#806040" stroke-width="2"/>
    <!-- sourire sage -->
    <path d="M72,64 Q80,70 88,64" fill="none" stroke="#806040" stroke-width="1.5"/>
    <!-- carnet dans poche -->
    <rect x="56" y="85" width="8" height="12" rx="1" fill="#FFD166" opacity="0.7"/>
  </g>
  <circle cx="80" cy="80" r="76" fill="none" stroke="#2980b9" stroke-width="4"/>
</svg>