<svg xmlns="http://www.w3.org/2000/svg" viewBox="0 0 160 160" width="160" height="160">
  <defs><clipPath id="c"><circle cx="80" cy="80" r="76"/></clipPath></defs>
  <circle cx="80" cy="80" r="78" fill="#fff"/>
  <g clip-path="url(#c)">
    <!-- fond ville colorée -->
    <rect x="0" y="0" width="160" height="160" fill="#ffeaa7"/>
    <!-- ciel -->
    <rect x="0" y="0" width="160" height="80" fill="#74b9ff"/>
    <!-- bâtiments colorés -->
    <rect x="0" y="60" width="28" height="60" fill="#fd79a8"/>
    <rect x="2" y="55" width="24" height="10" fill="#e84393"/>
    <rect x="28" y="70" width="22" height="50" fill="#a29bfe"/>
    <rect x="50" y="55" width="18" height="65" fill="#55efc4"/>
    <rect x="112" y="62" width="24" height="58" fill="#fdcb6e"/>
    <rect x="114" y="56" width="20" height="10" fill="#e17055"/>
    <rect x="136" y="68" width="24" height="52" fill="#ff7675"/>
    <!-- fenêtres -->
    <rect x="4" y="64" width="6" height="5" fill="#fff" opacity="0.7"/>
    <rect x="14" y="64" width="6" height="5" fill="#fff" opacity="0.7"/>
    <rect x="4" y="74" width="6" height="5" fill="#fff" opacity="0.7"/>
    <rect x="30" y="76" width="6" height="5" fill="#fff" opacity="0.7"/>
    <rect x="40" y="76" width="6" height="5" fill="#fff" opacity="0.7"/>
    <rect x="53" y="62" width="5" height="5" fill="#fff" opacity="0.7"/>
    <rect x="53" y="72" width="5" height="5" fill="#fff" opacity="0.7"/>
    <rect x="114" y="66" width="6" height="5" fill="#fff" opacity="0.7"/>
    <rect x="124" y="66" width="6" height="5" fill="#fff" opacity="0.7"/>
    <rect x="138" y="74" width="6" height="5" fill="#fff" opacity="0.7"/>
    <!-- sol rue pavée -->
    <rect x="0" y="130" width="160" height="30" fill="#b2bec3"/>
    <rect x="0" y="130" width="160" height="4" fill="#636e72"/>
    <!-- ombre sol -->
    <ellipse cx="80" cy="133" rx="35" ry="5" fill="#636e72" opacity="0.3"/>
    <!-- jambes -->
    <rect x="65" y="118" width="13" height="28" rx="5" fill="#fd79a8"/>
    <rect x="82" y="116" width="13" height="30" rx="5" fill="#fd79a8" transform="rotate(8,88,131)"/>
    <!-- baskets colorées -->
    <rect x="61" y="140" width="20" height="10" rx="4" fill="#fff"/>
    <rect x="61" y="140" width="20" height="5" rx="2" fill="#74b9ff"/>
    <rect x="79" y="140" width="20" height="10" rx="4" fill="#fff"/>
    <rect x="79" y="140" width="20" height="5" rx="2" fill="#fd79a8"/>
    <!-- short coloré -->
    <rect x="62" y="106" width="36" height="18" rx="5" fill="#6c5ce7"/>
    <!-- t-shirt crop top -->
    <rect x="59" y="78" width="42" height="32" rx="6" fill="#ff7675"/>
    <!-- motif t-shirt -->
    <text x="80" y="97" font-size="14" text-anchor="middle" fill="#fff" font-family="sans-serif">☀</text>
    <!-- bras gauche avec téléphone -->
    <rect x="38" y="76" width="22" height="11" rx="5" fill="#f9c784"/>
    <!-- téléphone -->
    <rect x="24" y="68" width="18" height="26" rx="3" fill="#2d3748"/>
    <rect x="26" y="70" width="14" height="20" rx="2" fill="#74b9ff"/>
    <circle cx="33" cy="92" r="2" fill="#4a5568"/>
    <!-- selfie flash -->
    <circle cx="37" cy="71" r="2" fill="#FFD166"/>
    <!-- bras droit -->
    <rect x="100" y="82" width="20" height="11" rx="5" fill="#f9c784" transform="rotate(-15,110,87)"/>
    <!-- grand sac à dos -->
    <rect x="92" y="72" width="24" height="40" rx="5" fill="#a29bfe"/>
    <rect x="94" y="75" width="20" height="28" rx="3" fill="#8e7cf8"/>
    <rect x="96" y="78" width="16" height="10" rx="2" fill="#a29bfe"/>
    <rect x="96" y="90" width="16" height="10" rx="2" fill="#a29bfe"/>
    <!-- accessoires sac -->
    <ellipse cx="104" cy="70" rx="6" ry="4" fill="#fdcb6e"/>
    <circle cx="95" cy="75" r="3" fill="#fd79a8"/>
    <!-- bretelles sac -->
    <rect x="62" y="80" width="5" height="30" rx="2" fill="#8e7cf8"/>
    <rect x="93" y="80" width="5" height="30" rx="2" fill="#8e7cf8"/>
    <!-- cou -->
    <rect x="74" y="63" width="12" height="17" rx="4" fill="#f9c784"/>
    <!-- tête -->
    <ellipse cx="80" cy="51" rx="21" ry="22" fill="#f9c784"/>
    <!-- cheveux afro -->
    <ellipse cx="80" cy="36" rx="26" ry="22" fill="#2d1810"/>
    <ellipse cx="80" cy="30" rx="24" ry="18" fill="#3d2820"/>
    <!-- volume afro -->
    <ellipse cx="60" cy="40" rx="10" ry="14" fill="#2d1810"/>
    <ellipse cx="100" cy="40" rx="10" ry="14" fill="#2d1810"/>
    <ellipse cx="80" cy="28" rx="22" ry="12" fill="#2d1810"/>
    <!-- écharpe dans cheveux -->
    <path d="M59,38 Q80,28 101,38" fill="none" stroke="#fd79a8" stroke-width="3"/>
    <!-- yeux vifs -->
    <ellipse cx="73" cy="51" rx="4.5" ry="5" fill="#fff"/>
    <ellipse cx="87" cy="51" rx="4.5" ry="5" fill="#fff"/>
    <circle cx="73" cy="51" r="3" fill="#3d2010"/>
    <circle cx="87" cy="51" r="3" fill="#3d2010"/>
    <circle cx="74" cy="50" r="1.2" fill="#fff"/>
    <circle cx="88" cy="50" r="1.2" fill="#fff"/>
    <!-- cils longs -->
    <path d="M68,48 Q73,44 78,48" fill="none" stroke="#2d1810" stroke-width="1.5"/>
    <path d="M82,48 Q87,44 92,48" fill="none" stroke="#2d1810" stroke-width="1.5"/>
    <!-- sourcils naturels -->
    <path d="M69,45 Q73,42 77,44" fill="none" stroke="#2d1810" stroke-width="2"/>
    <path d="M83,44 Q87,42 91,45" fill="none" stroke="#2d1810" stroke-width="2"/>
    <!-- nez -->
    <ellipse cx="80" cy="57" rx="4" ry="3" fill="#e8a878"/>
    <!-- sourire rayonnant -->
    <path d="M71,63 Q80,72 89,63" fill="#fff"/>
    <path d="M71,63 Q80,70 89,63" fill="none" stroke="#c07040" stroke-width="2"/>
    <!-- boucles d'oreilles -->
    <circle cx="59" cy="54" r="4" fill="#FFD166"/>
    <circle cx="101" cy="54" r="4" fill="#FFD166"/>
    <!-- casque audio -->
    <path d="M59,46 Q60,28 80,26 Q100,28 101,46" fill="none" stroke="#2d3748" stroke-width="4"/>
    <rect x="55" y="44" width="8" height="12" rx="3" fill="#2d3748"/>
    <rect x="97" y="44" width="8" height="12" rx="3" fill="#2d3748"/>
    <rect x="57" y="46" width="4" height="8" rx="2" fill="#fd79a8"/>
    <rect x="99" y="46" width="4" height="8" rx="2" fill="#fd79a8"/>
  </g>
  <circle cx="80" cy="80" r="76" fill="none" stroke="#6c5ce7" stroke-width="4"/>
</svg>