<svg xmlns="http://www.w3.org/2000/svg" viewBox="0 0 160 160" width="160" height="160">
  <defs><clipPath id="c"><circle cx="80" cy="80" r="76"/></clipPath></defs>
  <circle cx="80" cy="80" r="78" fill="#fff"/>
  <g clip-path="url(#c)">
    <!-- fond forêt -->
    <rect x="0" y="0" width="160" height="160" fill="#52b788"/>
    <ellipse cx="20" cy="140" rx="50" ry="35" fill="#2d6a4f"/>
    <ellipse cx="140" cy="145" rx="55" ry="32" fill="#2d6a4f"/>
    <ellipse cx="80" cy="155" rx="70" ry="30" fill="#40916c"/>
    <!-- arbres fond -->
    <rect x="10" y="80" width="6" height="50" fill="#5c3d11"/>
    <ellipse cx="13" cy="74" rx="18" ry="20" fill="#1b4332"/>
    <rect x="138" y="75" width="6" height="55" fill="#5c3d11"/>
    <ellipse cx="141" cy="69" rx="18" ry="20" fill="#1b4332"/>
    <!-- corps personnage -->
    <!-- jambes -->
    <rect x="67" y="118" width="12" height="28" rx="5" fill="#8B4513"/>
    <rect x="81" y="118" width="12" height="28" rx="5" fill="#8B4513"/>
    <!-- bottes -->
    <rect x="65" y="140" width="16" height="10" rx="3" fill="#3d1c00"/>
    <rect x="79" y="140" width="16" height="10" rx="3" fill="#3d1c00"/>
    <!-- short kaki -->
    <rect x="63" y="108" width="34" height="16" rx="4" fill="#6b7c45"/>
    <!-- chemise -->
    <rect x="60" y="82" width="40" height="30" rx="6" fill="#c8a96e"/>
    <!-- col et boutons -->
    <rect x="78" y="83" width="4" height="22" fill="#b8925a"/>
    <circle cx="80" cy="88" r="2" fill="#8B6914"/>
    <circle cx="80" cy="95" r="2" fill="#8B6914"/>
    <circle cx="80" cy="102" r="2" fill="#8B6914"/>
    <!-- bras gauche avec carte -->
    <rect x="42" y="84" width="20" height="12" rx="5" fill="#c8a96e"/>
    <!-- carte -->
    <rect x="30" y="78" width="22" height="16" rx="2" fill="#f4e4c1"/>
    <line x1="34" y1="82" x2="48" y2="82" stroke="#8B4513" stroke-width="1"/>
    <line x1="34" y1="86" x2="48" y2="86" stroke="#8B4513" stroke-width="1"/>
    <line x1="34" y1="90" x2="44" y2="90" stroke="#8B4513" stroke-width="1"/>
    <circle cx="43" cy="84" r="2" fill="#e63946"/>
    <!-- bras droit -->
    <rect x="98" y="84" width="20" height="12" rx="5" fill="#c8a96e"/>
    <!-- bâton explorateur -->
    <line x1="116" y1="78" x2="122" y2="145" stroke="#8B4513" stroke-width="4"/>
    <!-- cou -->
    <rect x="74" y="68" width="12" height="16" rx="4" fill="#f4a261"/>
    <!-- tête -->
    <ellipse cx="80" cy="58" rx="22" ry="22" fill="#f4a261"/>
    <!-- cheveux bruns longs -->
    <ellipse cx="80" cy="42" rx="22" ry="14" fill="#5c3d11"/>
    <rect x="58" y="42" width="8" height="28" rx="4" fill="#5c3d11"/>
    <rect x="94" y="42" width="8" height="28" rx="4" fill="#5c3d11"/>
    <!-- chapeau explorateur -->
    <ellipse cx="80" cy="40" rx="28" ry="8" fill="#8B6914"/>
    <rect x="62" y="28" width="36" height="16" rx="4" fill="#a07830"/>
    <rect x="60" y="38" width="40" height="5" rx="2" fill="#8B6914"/>
    <!-- cordon chapeau -->
    <path d="M62,42 Q60,55 64,65" fill="none" stroke="#5c3d11" stroke-width="1.5"/>
    <!-- yeux -->
    <ellipse cx="73" cy="57" rx="4" ry="4.5" fill="#fff"/>
    <ellipse cx="87" cy="57" rx="4" ry="4.5" fill="#fff"/>
    <circle cx="73" cy="57" r="2.5" fill="#5c3d11"/>
    <circle cx="87" cy="57" r="2.5" fill="#5c3d11"/>
    <circle cx="74" cy="56" r="1" fill="#fff"/>
    <circle cx="88" cy="56" r="1" fill="#fff"/>
    <!-- sourcils -->
    <path d="M69,52 Q73,50 77,52" fill="none" stroke="#5c3d11" stroke-width="1.5"/>
    <path d="M83,52 Q87,50 91,52" fill="none" stroke="#5c3d11" stroke-width="1.5"/>
    <!-- nez -->
    <ellipse cx="80" cy="61" rx="3" ry="2" fill="#e8916a"/>
    <!-- sourire -->
    <path d="M73,67 Q80,73 87,67" fill="none" stroke="#c05820" stroke-width="1.5"/>
    <!-- sac à dos -->
    <rect x="95" y="84" width="16" height="22" rx="4" fill="#e63946"/>
    <rect x="97" y="87" width="12" height="16" rx="2" fill="#c0392b"/>
    <rect x="99" y="90" width="8" height="5" rx="1" fill="#e63946"/>
  </g>
  <circle cx="80" cy="80" r="76" fill="none" stroke="#2d6a4f" stroke-width="4"/>
</svg>