<svg xmlns="http://www.w3.org/2000/svg" viewBox="0 0 160 160" width="160" height="160">
  <defs><clipPath id="c"><circle cx="80" cy="80" r="76"/></clipPath></defs>
  <circle cx="80" cy="80" r="78" fill="#fff"/>
  <g clip-path="url(#c)">
    <!-- fond désert coucher de soleil -->
    <rect x="0" y="0" width="160" height="160" fill="#f4a261"/>
    <rect x="0" y="0" width="160" height="55" fill="#e76f51"/>
    <circle cx="140" cy="35" r="28" fill="#FFD166" opacity="0.9"/>
    <ellipse cx="50" cy="140" rx="80" ry="35" fill="#e9c46a"/>
    <ellipse cx="140" cy="148" rx="60" ry="28" fill="#d4a850"/>
    <!-- dunes -->
    <path d="M0,120 Q40,95 80,115 Q120,135 160,110 L160,160 L0,160 Z" fill="#e9c46a"/>
    <!-- palmier fond -->
    <rect x="120" y="70" width="5" height="55" fill="#5c3d11"/>
    <ellipse cx="122" cy="65" rx="22" ry="10" fill="#2d6a4f"/>
    <ellipse cx="132" cy="58" rx="18" ry="9" fill="#40916c"/>
    <!-- jambes -->
    <rect x="65" y="120" width="14" height="32" rx="5" fill="#2d6a4f"/>
    <rect x="81" y="120" width="14" height="32" rx="5" fill="#2d6a4f"/>
    <!-- sandales -->
    <rect x="62" y="145" width="20" height="8" rx="2" fill="#8B4513"/>
    <line x1="64" y1="148" x2="80" y2="148" stroke="#5c3d11" stroke-width="1.5"/>
    <rect x="78" y="145" width="20" height="8" rx="2" fill="#8B4513"/>
    <line x1="80" y1="148" x2="96" y2="148" stroke="#5c3d11" stroke-width="1.5"/>
    <!-- djellaba longue -->
    <rect x="55" y="78" width="50" height="46" rx="8" fill="#f0ead2"/>
    <!-- motifs broderie -->
    <rect x="78" y="80" width="4" height="38" fill="#c8a96e" opacity="0.5"/>
    <rect x="56" y="90" width="48" height="2" fill="#c8a96e" opacity="0.4"/>
    <rect x="56" y="98" width="48" height="2" fill="#c8a96e" opacity="0.4"/>
    <!-- ceinture colorée -->
    <rect x="55" y="105" width="50" height="8" rx="3" fill="#e63946"/>
    <rect x="57" y="107" width="46" height="4" fill="#FFD166" opacity="0.6"/>
    <!-- bras gauche avec bâton -->
    <rect x="36" y="84" width="22" height="12" rx="5" fill="#f0ead2" transform="rotate(15,47,90)"/>
    <!-- bâton sculpté -->
    <line x1="38" y1="92" x2="28" y2="150" stroke="#8B4513" stroke-width="4"/>
    <ellipse cx="28" cy="88" rx="4" ry="6" fill="#5c3d11"/>
    <ellipse cx="28" cy="92" rx="3" ry="4" fill="#8B4513"/>
    <!-- bras droit -->
    <rect x="102" y="84" width="22" height="12" rx="5" fill="#f0ead2" transform="rotate(-10,113,90)"/>
    <!-- cou -->
    <rect x="74" y="63" width="12" height="17" rx="4" fill="#8B5E3C"/>
    <!-- tête -->
    <ellipse cx="80" cy="52" rx="21" ry="22" fill="#8B5E3C"/>
    <!-- chèche bleu enroulé -->
    <ellipse cx="80" cy="34" rx="24" ry="12" fill="#0d6efd"/>
    <rect x="56" y="30" width="48" height="16" rx="3" fill="#0d6efd"/>
    <!-- voile tombant côté -->
    <rect x="56" y="34" width="10" height="30" rx="4" fill="#0d6efd"/>
    <rect x="94" y="34" width="10" height="22" rx="4" fill="#0d6efd"/>
    <!-- plis du chèche -->
    <path d="M58,35 Q65,40 58,50" fill="none" stroke="#0a56c8" stroke-width="1.5"/>
    <path d="M62,35 Q69,42 62,52" fill="none" stroke="#0a56c8" stroke-width="1.5"/>
    <!-- yeux sombres et expressifs -->
    <ellipse cx="73" cy="51" rx="4.5" ry="5" fill="#fff"/>
    <ellipse cx="87" cy="51" rx="4.5" ry="5" fill="#fff"/>
    <circle cx="73" cy="51" r="3" fill="#1a0a00"/>
    <circle cx="87" cy="51" r="3" fill="#1a0a00"/>
    <circle cx="74" cy="50" r="1" fill="#fff"/>
    <circle cx="88" cy="50" r="1" fill="#fff"/>
    <!-- sourcils épais sombres -->
    <rect x="68" y="44" width="11" height="3.5" rx="1.5" fill="#1a0a00"/>
    <rect x="81" y="44" width="11" height="3.5" rx="1.5" fill="#1a0a00"/>
    <!-- nez prononcé -->
    <path d="M78,54 Q80,59 82,54" fill="none" stroke="#6a3e1e" stroke-width="2"/>
    <!-- moustache -->
    <path d="M73,62 Q80,66 87,62" fill="#1a0a00"/>
    <!-- sourire chaleureux -->
    <path d="M74,64 Q80,69 86,64" fill="none" stroke="#6a3e1e" stroke-width="1.5"/>
  </g>
  <circle cx="80" cy="80" r="76" fill="none" stroke="#e76f51" stroke-width="4"/>
</svg>