<svg xmlns="http://www.w3.org/2000/svg" viewBox="0 0 160 160" width="160" height="160">
  <defs>
    <clipPath id="cercle"><circle cx="80" cy="80" r="76"/></clipPath>
  </defs>
  <circle cx="80" cy="80" r="78" fill="#fff"/>
  <g clip-path="url(#cercle)">
    <rect x="0" y="0" width="160" height="82" fill="#87CEEB"/>
    <rect x="0" y="82" width="160" height="78" fill="#1a6fa0"/>
    <ellipse cx="58" cy="96" rx="26" ry="5" fill="#3da8d4" opacity="0.5"/>
    <ellipse cx="118" cy="112" rx="22" ry="4" fill="#3da8d4" opacity="0.5"/>
    <rect x="66" y="58" width="4" height="30" fill="#c7a45a"/>
    <polygon points="70,60 70,78 90,74" fill="#fff"/>
    <rect x="58" y="86" width="22" height="7" rx="3" fill="#c7a45a"/>
    <ellipse cx="28" cy="20" rx="20" ry="11" fill="#fff"/>
    <ellipse cx="46" cy="16" rx="15" ry="10" fill="#fff"/>
    <ellipse cx="128" cy="28" rx="18" ry="9" fill="#fff"/>
    <rect x="126" y="53" width="11" height="30" fill="#fff" stroke="#cc3333" stroke-width="1.5"/>
    <rect x="124" y="50" width="15" height="6" fill="#cc3333"/>
    <polygon points="126,50 137,50 131,42" fill="#e8e8e8"/>
    <circle cx="132" cy="47" r="4" fill="#FFD166"/>
    <path d="M0,110 Q20,102 40,110 Q60,118 80,110 Q100,102 120,110 Q140,118 160,110" fill="none" stroke="#fff" stroke-width="2" opacity="0.6"/>
  </g>
  <circle cx="80" cy="80" r="76" fill="none" stroke="#1a6fa0" stroke-width="4"/>
</svg>
