<svg xmlns="http://www.w3.org/2000/svg" viewBox="0 0 160 160" width="160" height="160">
  <defs><clipPath id="c"><circle cx="80" cy="80" r="76"/></clipPath></defs>
  <circle cx="80" cy="80" r="78" fill="#fff"/>
  <g clip-path="url(#c)">
    <!-- fond montagne dorée -->
    <rect x="0" y="0" width="160" height="160" fill="#ffecd2"/>
    <rect x="0" y="0" width="160" height="80" fill="#ffb347"/>
    <polygon points="0,160 60,60 120,160" fill="#e07b39"/>
    <polygon points="50,160 110,55 160,160" fill="#c0612a"/>
    <polygon points="60,60 48,90 72,90" fill="#fff" opacity="0.7"/>
    <polygon points="110,55 98,82 122,82" fill="#fff" opacity="0.7"/>
    <ellipse cx="20" cy="145" rx="45" ry="25" fill="#c8a97a"/>
    <ellipse cx="140" cy="150" rx="40" ry="22" fill="#c8a97a"/>
    <!-- corps -->
    <!-- jambes -->
    <rect x="67" y="120" width="12" height="30" rx="5" fill="#2c3e50"/>
    <rect x="81" y="120" width="12" height="30" rx="5" fill="#2c3e50"/>
    <!-- chaussures -->
    <rect x="64" y="143" width="17" height="9" rx="3" fill="#1a1a2e"/>
    <rect x="79" y="143" width="17" height="9" rx="3" fill="#1a1a2e"/>
    <!-- pantalon cargo -->
    <rect x="63" y="108" width="34" height="18" rx="4" fill="#4a5568"/>
    <rect x="65" y="112" width="8" height="8" rx="2" fill="#3a4558" opacity="0.6"/>
    <rect x="87" y="112" width="8" height="8" rx="2" fill="#3a4558" opacity="0.6"/>
    <!-- veste sans manches grise -->
    <rect x="58" y="78" width="44" height="34" rx="6" fill="#718096"/>
    <rect x="78" y="79" width="4" height="28" fill="#5a6070"/>
    <!-- bras gauche tendu tenant appareil -->
    <rect x="36" y="80" width="24" height="11" rx="5" fill="#a0aab4"/>
    <!-- appareil photo -->
    <rect x="22" y="72" width="28" height="20" rx="3" fill="#2c3e50"/>
    <circle cx="36" cy="82" r="7" fill="#1a1a2e"/>
    <circle cx="36" cy="82" r="5" fill="#2d3748"/>
    <circle cx="36" cy="82" r="3" fill="#4a5568"/>
    <circle cx="36" cy="82" r="1.5" fill="#90cdf4"/>
    <rect x="22" y="72" width="28" height="5" rx="2" fill="#4a5568"/>
    <rect x="38" y="68" width="8" height="6" rx="2" fill="#4a5568"/>
    <circle cx="26" cy="75" r="2" fill="#f6e05e"/>
    <!-- bras droit -->
    <rect x="100" y="83" width="22" height="11" rx="5" fill="#a0aab4"/>
    <!-- cou -->
    <rect x="74" y="64" width="12" height="16" rx="4" fill="#c8956a"/>
    <!-- bandoulière appareil -->
    <path d="M22,76 Q30,65 74,70" fill="none" stroke="#2c3e50" stroke-width="3"/>
    <!-- tête -->
    <ellipse cx="80" cy="52" rx="21" ry="22" fill="#c8956a"/>
    <!-- cheveux noirs courts -->
    <ellipse cx="80" cy="33" rx="21" ry="12" fill="#1a1a2e"/>
    <rect x="59" y="33" width="42" height="12" rx="2" fill="#1a1a2e"/>
    <ellipse cx="80" cy="33" rx="21" ry="8" fill="#2d3748"/>
    <!-- barbe légère -->
    <ellipse cx="80" cy="62" rx="14" ry="8" fill="#2d3748" opacity="0.25"/>
    <!-- yeux -->
    <ellipse cx="73" cy="50" rx="4" ry="4.5" fill="#fff"/>
    <ellipse cx="87" cy="50" rx="4" ry="4.5" fill="#fff"/>
    <circle cx="73" cy="50" r="2.5" fill="#2c3e50"/>
    <circle cx="87" cy="50" r="2.5" fill="#2c3e50"/>
    <circle cx="74" cy="49" r="1" fill="#fff"/>
    <circle cx="88" cy="49" r="1" fill="#fff"/>
    <!-- sourcils épais -->
    <rect x="68" y="44" width="10" height="3" rx="1.5" fill="#1a1a2e"/>
    <rect x="82" y="44" width="10" height="3" rx="1.5" fill="#1a1a2e"/>
    <!-- nez -->
    <ellipse cx="80" cy="55" rx="3" ry="2.5" fill="#b07050"/>
    <!-- bouche sérieuse -->
    <path d="M74,61 Q80,64 86,61" fill="none" stroke="#a06040" stroke-width="1.5"/>
    <!-- casquette -->
    <ellipse cx="80" cy="35" rx="24" ry="8" fill="#2c3e50"/>
    <rect x="56" y="30" width="48" height="12" rx="4" fill="#2c3e50"/>
    <rect x="56" y="35" width="55" height="6" rx="2" fill="#1a1a2e"/>
    <!-- soleil levant -->
    <circle cx="130" cy="18" r="14" fill="#FFD166" opacity="0.9"/>
  </g>
  <circle cx="80" cy="80" r="76" fill="none" stroke="#e07b39" stroke-width="4"/>
</svg>