<svg xmlns="http://www.w3.org/2000/svg" viewBox="0 0 160 160" width="160" height="160">
  <defs>
    <clipPath id="cercle"><circle cx="80" cy="80" r="76"/></clipPath>
  </defs>
  <circle cx="80" cy="80" r="78" fill="#fff"/>
  <g clip-path="url(#cercle)">
    <rect x="0" y="0" width="160" height="82" fill="#87CEEB"/>
    <rect x="0" y="82" width="160" height="52" fill="#48cae4"/>
    <rect x="0" y="82" width="160" height="13" fill="#90e0ef" opacity="0.6"/>
    <rect x="0" y="120" width="160" height="40" fill="#f9e4b7"/>
    <circle cx="28" cy="28" r="20" fill="#FFD166"/>
    <ellipse cx="100" cy="18" rx="24" ry="11" fill="#fff"/>
    <ellipse cx="120" cy="14" rx="17" ry="10" fill="#fff"/>
    <rect x="118" y="68" width="6" height="58" fill="#8B6914" transform="rotate(-8,121,148)"/>
    <ellipse cx="108" cy="66" rx="24" ry="11" fill="#2d6a4f"/>
    <ellipse cx="128" cy="60" rx="22" ry="10" fill="#40916c"/>
    <ellipse cx="116" cy="54" rx="18" ry="8" fill="#52b788"/>
    <circle cx="124" cy="68" r="6" fill="#4a7c59"/>
    <rect x="43" y="94" width="4" height="30" fill="#5c3d11"/>
    <ellipse cx="45" cy="93" rx="24" ry="11" fill="#e63946"/>
    <ellipse cx="45" cy="93" rx="17" ry="8" fill="#FFD166"/>
    <rect x="24" y="122" width="34" height="9" rx="3" fill="#f4a261"/>
    <rect x="22" y="118" width="20" height="13" rx="3" fill="#e9c46a"/>
    <path d="M0,110 Q20,102 40,110 Q60,118 80,110 Q100,102 120,110 Q140,118 160,110" fill="none" stroke="#fff" stroke-width="2.5" opacity="0.6"/>
    <ellipse cx="94" cy="132" rx="8" ry="6" fill="#f4a261" stroke="#e76f51" stroke-width="0.5"/>
    <ellipse cx="94" cy="132" rx="5" ry="4" fill="#e9c46a"/>
  </g>
  <circle cx="80" cy="80" r="76" fill="none" stroke="#0096c7" stroke-width="4"/>
</svg>
