<svg xmlns="http://www.w3.org/2000/svg" viewBox="0 0 160 160" width="160" height="160">
  <defs>
    <clipPath id="cercle"><circle cx="80" cy="80" r="76"/></clipPath>
  </defs>
  <circle cx="80" cy="80" r="78" fill="#fff"/>
  <g clip-path="url(#cercle)">
    <rect x="0" y="0" width="160" height="160" fill="#caf0f8"/>
    <ellipse cx="18" cy="116" rx="62" ry="42" fill="#52b788"/>
    <ellipse cx="90" cy="122" rx="82" ry="52" fill="#40916c"/>
    <ellipse cx="156" cy="112" rx="52" ry="37" fill="#52b788"/>
    <path d="M74,160 Q77,134 71,108 Q65,88 69,68 Q73,53 80,38" fill="none" stroke="#c9a96e" stroke-width="9"/>
    <path d="M74,160 Q77,134 71,108 Q65,88 69,68 Q73,53 80,38" fill="none" stroke="#e9d5ae" stroke-width="5"/>
    <circle cx="130" cy="24" r="20" fill="#FFD166"/>
    <ellipse cx="38" cy="18" rx="22" ry="11" fill="#fff"/>
    <ellipse cx="58" cy="14" rx="18" ry="10" fill="#fff"/>
    <circle cx="72" cy="78" r="9" fill="#f4a261"/>
    <rect x="67" y="87" width="11" height="18" rx="3" fill="#264653"/>
    <line x1="67" y1="91" x2="56" y2="107" stroke="#264653" stroke-width="3.5"/>
    <line x1="56" y1="107" x2="55" y2="118" stroke="#8B6914" stroke-width="2.5"/>
    <line x1="70" y1="105" x2="65" y2="120" stroke="#2c3e50" stroke-width="3.5"/>
    <line x1="74" y1="105" x2="80" y2="118" stroke="#2c3e50" stroke-width="3.5"/>
    <rect x="76" y="87" width="9" height="13" rx="2" fill="#e63946"/>
    <rect x="106" y="86" width="6" height="28" fill="#5c3d11"/>
    <ellipse cx="109" cy="80" rx="20" ry="18" fill="#2d6a4f"/>
    <ellipse cx="109" cy="74" rx="15" ry="13" fill="#40916c"/>
    <path d="M48,42 Q52,38 56,42" fill="none" stroke="#264653" stroke-width="2.5"/>
    <path d="M60,40 Q64,36 68,40" fill="none" stroke="#264653" stroke-width="2.5"/>
    <circle cx="28" cy="120" r="5" fill="#e63946"/>
    <circle cx="38" cy="115" r="4" fill="#FFD166"/>
    <circle cx="142" cy="124" r="5" fill="#ff85a1"/>
    <circle cx="150" cy="118" r="3" fill="#FFD166"/>
  </g>
  <circle cx="80" cy="80" r="76" fill="none" stroke="#40916c" stroke-width="4"/>
</svg>
