<svg xmlns="http://www.w3.org/2000/svg" viewBox="0 0 160 160" width="160" height="160">
  <defs><clipPath id="c"><circle cx="80" cy="80" r="76"/></clipPath></defs>
  <circle cx="80" cy="80" r="78" fill="#fff"/>
  <g clip-path="url(#c)">
    <!-- fond montagne -->
    <rect x="0" y="0" width="160" height="160" fill="#caf0f8"/>
    <polygon points="0,160 50,60 110,160" fill="#7a9db5"/>
    <polygon points="60,160 120,50 160,160" fill="#5b7fa0"/>
    <polygon points="50,60 38,92 62,92" fill="#f0f8ff"/>
    <polygon points="120,50 108,80 132,80" fill="#f0f8ff"/>
    <rect x="0" y="130" width="160" height="30" fill="#e8f4fc"/>
    <ellipse cx="80" cy="20" rx="22" ry="10" fill="#fff" opacity="0.8"/>
    <ellipse cx="30" cy="30" rx="18" ry="8" fill="#fff" opacity="0.8"/>
    <ellipse cx="130" cy="25" rx="20" ry="9" fill="#fff" opacity="0.8"/>
    <!-- jambes -->
    <rect x="65" y="120" width="13" height="30" rx="5" fill="#e9c46a"/>
    <rect x="82" y="118" width="13" height="32" rx="5" fill="#e9c46a" transform="rotate(5,88,134)"/>
    <!-- chaussures de rando -->
    <rect x="62" y="143" width="18" height="10" rx="3" fill="#5c3d11"/>
    <rect x="79" y="144" width="18" height="10" rx="3" fill="#5c3d11"/>
    <!-- leggings violet -->
    <rect x="62" y="106" width="36" height="20" rx="5" fill="#6b2d8b"/>
    <!-- veste légère rose -->
    <rect x="57" y="76" width="46" height="34" rx="7" fill="#ff85a1"/>
    <!-- fermeture éclair -->
    <rect x="78" y="77" width="4" height="28" fill="#e06080"/>
    <!-- bras gauche avec bâton -->
    <rect x="38" y="82" width="22" height="11" rx="5" fill="#ff85a1" transform="rotate(20,49,87)"/>
    <!-- bâton de marche -->
    <line x1="42" y1="85" x2="30" y2="148" stroke="#8B6914" stroke-width="3.5"/>
    <ellipse cx="30" cy="149" rx="5" ry="3" fill="#5c3d11"/>
    <!-- bras droit -->
    <rect x="100" y="80" width="22" height="11" rx="5" fill="#ff85a1" transform="rotate(-15,111,85)"/>
    <!-- sac à dos montagne -->
    <rect x="93" y="76" width="20" height="30" rx="5" fill="#e63946"/>
    <rect x="95" y="79" width="16" height="22" rx="3" fill="#c0392b"/>
    <rect x="97" y="82" width="12" height="7" rx="2" fill="#e63946"/>
    <ellipse cx="103" cy="100" rx="5" ry="3" fill="#e63946"/>
    <!-- cou -->
    <rect x="74" y="63" width="12" height="15" rx="4" fill="#f4c09a"/>
    <!-- tête -->
    <ellipse cx="80" cy="52" rx="21" ry="21" fill="#f4c09a"/>
    <!-- cheveux roux tressés -->
    <ellipse cx="80" cy="34" rx="21" ry="12" fill="#c0392b"/>
    <rect x="59" y="34" width="7" height="35" rx="3" fill="#c0392b"/>
    <rect x="94" y="34" width="7" height="35" rx="3" fill="#c0392b"/>
    <!-- tresse détails -->
    <ellipse cx="62" cy="50" rx="3" ry="6" fill="#a93226"/>
    <ellipse cx="98" cy="50" rx="3" ry="6" fill="#a93226"/>
    <ellipse cx="62" cy="62" rx="3" ry="5" fill="#c0392b"/>
    <ellipse cx="98" cy="62" rx="3" ry="5" fill="#c0392b"/>
    <!-- bandeau -->
    <rect x="59" y="38" width="42" height="7" rx="3" fill="#FFD166"/>
    <!-- yeux verts -->
    <ellipse cx="73" cy="51" rx="4" ry="4.5" fill="#fff"/>
    <ellipse cx="87" cy="51" rx="4" ry="4.5" fill="#fff"/>
    <circle cx="73" cy="51" r="2.5" fill="#27ae60"/>
    <circle cx="87" cy="51" r="2.5" fill="#27ae60"/>
    <circle cx="74" cy="50" r="1" fill="#fff"/>
    <circle cx="88" cy="50" r="1" fill="#fff"/>
    <!-- sourcils -->
    <path d="M69,45 Q73,43 77,45" fill="none" stroke="#a93226" stroke-width="1.5"/>
    <path d="M83,45 Q87,43 91,45" fill="none" stroke="#a93226" stroke-width="1.5"/>
    <!-- taches de rousseur -->
    <circle cx="70" cy="57" r="1.5" fill="#e8a070" opacity="0.6"/>
    <circle cx="74" cy="59" r="1" fill="#e8a070" opacity="0.6"/>
    <circle cx="86" cy="57" r="1.5" fill="#e8a070" opacity="0.6"/>
    <circle cx="90" cy="59" r="1" fill="#e8a070" opacity="0.6"/>
    <!-- nez -->
    <ellipse cx="80" cy="55" rx="3" ry="2" fill="#e09070"/>
    <!-- sourire -->
    <path d="M73,61 Q80,68 87,61" fill="none" stroke="#c07050" stroke-width="2"/>
    <!-- dents -->
    <path d="M74,62 Q80,67 86,62" fill="#fff"/>
  </g>
  <circle cx="80" cy="80" r="76" fill="none" stroke="#5b7fa0" stroke-width="4"/>
</svg>