<svg xmlns="http://www.w3.org/2000/svg" viewBox="0 0 160 160" width="160" height="160">
  <defs>
    <clipPath id="cercle"><circle cx="80" cy="80" r="76"/></clipPath>
  </defs>
  <circle cx="80" cy="80" r="78" fill="#fff"/>
  <g clip-path="url(#cercle)">
    <rect x="0" y="0" width="160" height="160" fill="#03045e"/>
    <circle cx="18" cy="14" r="2" fill="#fff"/>
    <circle cx="44" cy="7" r="1.5" fill="#fff"/>
    <circle cx="68" cy="19" r="2" fill="#fff"/>
    <circle cx="98" cy="9" r="1.5" fill="#fff"/>
    <circle cx="128" cy="16" r="2" fill="#fff"/>
    <circle cx="150" cy="7" r="1.5" fill="#fff"/>
    <circle cx="9" cy="33" r="1.5" fill="#fff"/>
    <circle cx="88" cy="30" r="1.5" fill="#fff"/>
    <circle cx="128" cy="26" r="13" fill="#FFD166"/>
    <circle cx="135" cy="22" r="10" fill="#03045e"/>
    <rect x="0" y="122" width="160" height="38" fill="#023e8a"/>
    <rect x="0" y="122" width="160" height="9" fill="#0077b6" opacity="0.5"/>
    <rect x="4" y="74" width="21" height="52" fill="#1d3461"/>
    <rect x="7" y="71" width="15" height="6" fill="#2a4f8c"/>
    <rect x="27" y="58" width="17" height="68" fill="#264653"/>
    <rect x="46" y="79" width="13" height="47" fill="#1d3461"/>
    <rect x="61" y="48" width="23" height="78" fill="#2a4f8c"/>
    <rect x="86" y="63" width="19" height="63" fill="#264653"/>
    <rect x="107" y="70" width="15" height="56" fill="#1d3461"/>
    <rect x="124" y="53" width="21" height="73" fill="#2a4f8c"/>
    <rect x="144" y="76" width="17" height="50" fill="#264653"/>
    <rect x="8" y="79" width="5" height="4" fill="#FFD166"/>
    <rect x="16" y="79" width="5" height="4" fill="#FFD166"/>
    <rect x="8" y="88" width="5" height="4" fill="#FFD166"/>
    <rect x="62" y="58" width="5" height="4" fill="#FFD166"/>
    <rect x="70" y="58" width="5" height="4" fill="#FFD166"/>
    <rect x="62" y="67" width="5" height="4" fill="#FFD166"/>
    <rect x="70" y="67" width="5" height="4" fill="#FFD166"/>
    <rect x="125" y="63" width="5" height="4" fill="#FFD166"/>
    <rect x="133" y="63" width="5" height="4" fill="#FFD166"/>
    <rect x="125" y="72" width="5" height="4" fill="#FFD166"/>
    <line x1="0" y1="120" x2="160" y2="120" stroke="#aaa" stroke-width="5"/>
    <line x1="28" y1="107" x2="28" y2="120" stroke="#ccc" stroke-width="2.5"/>
    <line x1="80" y1="102" x2="80" y2="120" stroke="#ccc" stroke-width="2.5"/>
    <line x1="132" y1="107" x2="132" y2="120" stroke="#ccc" stroke-width="2.5"/>
  </g>
  <circle cx="80" cy="80" r="76" fill="none" stroke="#023e8a" stroke-width="4"/>
</svg>
